<?xml version="1.0" standalone="no"?>
<!DOCTYPE svg PUBLIC "-//W3C//DTD SVG 20010904//EN"
 "http://www.w3.org/TR/2001/REC-SVG-20010904/DTD/svg10.dtd">
<svg version="1.0" xmlns="http://www.w3.org/2000/svg"
    width="300.000000pt" height="304.000000pt" viewBox="0 0 300.000000 304.000000"
    preserveAspectRatio="xMidYMid meet">
    <metadata>
    Created by potrace 1.10, written by Peter Selinger 2001-2011
    </metadata>
    <g transform="translate(0.000000,304.000000) scale(0.100000,-0.100000)"
    fill="#000000" stroke="none">
    <path id="block-a" title="Block A" d="M1908 2813 c-15 -4 -5 -29 63 -166 45 -89 83 -164 85 -167 3 -2 39
    13 81 33 41 21 76 37 77 35 0 -2 10 -20 20 -41 11 -20 19 -44 19 -53 0 -8 6
    -13 14 -10 8 3 13 -2 13 -12 0 -9 3 -27 6 -39 5 -19 -3 -26 -55 -52 -56 -29
    -94 -40 -78 -24 4 3 0 16 -8 29 -16 25 -12 30 44 59 34 17 34 17 56 -12 13
    -15 26 -25 29 -22 10 10 -16 59 -27 52 -6 -3 -7 -1 -3 5 4 7 2 12 -3 12 -6 0
    -10 3 -10 8 1 4 1 14 0 22 -1 13 -4 12 -14 -2 -7 -9 -24 -18 -37 -21 -16 -3
    -14 -4 8 -3 45 3 40 -10 -17 -38 l-49 -25 -4 31 c-4 26 0 33 25 47 40 22 79
    52 74 58 -9 8 -137 -61 -137 -74 0 -22 229 -473 240 -473 16 0 134 61 142 73
    3 6 -16 55 -43 109 -48 95 -48 98 -26 98 19 0 30 -15 67 -90 61 -125 75 -123
    85 16 4 58 5 107 4 109 -2 2 -51 -6 -108 -17 -57 -10 -109 -17 -115 -15 -15 6
    -36 158 -36 258 l0 74 -174 118 c-96 64 -178 116 -183 116 -4 -1 -16 -3 -25
    -6z m115 -80 c34 -20 74 -44 89 -55 15 -10 31 -18 37 -18 5 0 11 -6 14 -13 3
    -9 -18 -25 -60 -46 -36 -18 -66 -31 -67 -29 0 2 -9 17 -19 35 l-18 32 48 25
    c26 14 44 25 40 26 -4 0 -26 -9 -48 -21 -23 -11 -42 -19 -44 -17 -1 2 -8 13
    -14 26 -11 21 -10 22 21 24 l33 1 -33 4 c-23 3 -36 12 -47 34 -21 39 -7 37 68
    -8z m167 -143 c7 -17 10 -34 6 -37 -4 -4 -33 -7 -64 -6 -45 0 -50 -1 -22 -6
    33 -6 34 -7 10 -14 -40 -11 -54 -8 -68 13 -11 18 -7 22 46 49 31 17 62 30 68
    31 6 0 17 -14 24 -30z m94 -264 c-3 -7 -1 -24 5 -38 9 -23 6 -27 -36 -47 -25
    -12 -46 -21 -47 -19 -1 2 -9 20 -19 40 l-17 38 47 24 c48 24 76 25 67 2z m60
    -100 l40 -24 -62 -31 c-72 -36 -82 -38 -82 -12 0 10 -7 24 -16 32 -14 11 -10
    16 28 35 24 13 45 23 48 23 3 1 23 -10 44 -23z m174 -14 c3 -28 1 -32 -19 -29
    -30 5 -44 43 -21 56 26 15 37 8 40 -27z m-130 -29 c-4 -16 14 -53 25 -53 12
    -1 -111 -69 -125 -70 -5 0 -8 9 -8 20 0 11 -7 23 -15 26 -23 9 -8 23 59 55 68
    32 67 32 64 22z m37 -105 c0 -31 -2 -33 -45 -39 -36 -5 -39 -7 -15 -9 l30 -2
    -33 -10 c-27 -9 -36 -8 -53 8 -20 18 -20 18 43 51 35 17 65 32 68 33 3 0 5
    -15 5 -32z"/>
    <path id="block-b" title="Block B" d="M1734 2788 c-35 -14 -216 -58 -238 -58 -1 0 38 -79 86 -175 49 -96
    94 -175 100 -175 21 0 298 140 298 150 0 5 -30 70 -67 145 -66 131 -68 134
    -99 133 -17 -1 -53 -10 -80 -20z m99 -19 c19 -11 16 -14 -44 -45 -35 -18 -67
    -33 -70 -34 -7 0 -29 46 -29 62 0 6 2 9 5 6 3 -3 25 0 48 8 53 16 64 17 90 3z
    m-130 -74 c31 -63 31 -65 15 -65 -6 0 -8 3 -5 6 3 4 2 15 -4 25 -9 18 -13 17
    -69 -11 -68 -35 -70 -35 -70 -16 0 8 -10 22 -21 30 -21 14 -19 16 47 50 38 19
    71 35 74 36 3 0 18 -25 33 -55z m162 45 c-4 -6 0 -22 9 -35 16 -24 15 -24 -59
    -63 -41 -22 -75 -35 -75 -30 0 5 -5 6 -12 2 -7 -4 -8 -3 -4 5 4 6 12 9 18 5 5
    -3 2 8 -7 25 l-16 31 73 35 c80 39 82 39 73 25z m-170 -80 c-3 -5 1 -22 9 -38
    l15 -28 -53 -26 -53 -26 -16 34 -17 34 58 29 c65 34 65 34 57 21z m210 0 c-4
    -6 0 -21 8 -34 15 -22 14 -23 -51 -55 -62 -31 -67 -32 -79 -15 -7 10 -13 21
    -13 25 0 4 -9 5 -19 2 -17 -4 -18 -9 -9 -29 12 -26 28 -32 28 -11 0 12 25 -31
    40 -69 6 -15 5 -21 -3 -21 -7 0 -34 -1 -62 -3 -42 -2 -45 -3 -21 -9 l30 -6
    -28 -13 c-24 -11 -31 -10 -52 7 l-25 20 61 31 c34 17 60 34 57 36 -3 3 -32 -9
    -66 -26 -34 -16 -60 -27 -59 -23 4 16 -14 53 -25 53 -18 1 62 48 103 61 19 7
    37 15 40 19 7 11 123 69 138 70 7 0 10 -5 7 -10z m35 -98 c0 -37 -7 -43 -36
    -32 -18 7 -24 6 -24 -5 0 -7 8 -16 18 -18 13 -4 11 -5 -5 -6 -13 0 -32 -10
    -43 -21 -20 -20 -20 -20 -36 11 -8 17 -14 32 -12 34 7 6 124 64 131 65 4 0 7
    -13 7 -28z"/>
    <path id="block-c" title="Block C" d="M951 2662 c-47 -49 -99 -98 -116 -111 -24 -17 -25 -19 -5 -9 14 7 28
    11 33 10 4 -1 74 32 157 73 127 64 150 72 158 59 5 -9 12 -15 15 -15 4 1 25 1
    47 1 39 0 41 -2 70 -60 l30 -59 -111 -56 c-61 -31 -112 -55 -114 -53 -5 6 -35
    67 -35 72 0 3 12 7 28 9 22 3 22 4 -5 3 -24 -1 -34 4 -42 22 -14 29 -14 45 -1
    37 6 -4 21 0 34 9 23 14 24 14 41 -25 10 -22 22 -42 26 -45 5 -3 0 15 -11 38
    -22 48 -25 73 -9 63 5 -4 18 0 28 9 18 16 20 14 45 -28 14 -24 26 -49 26 -54
    0 -6 -23 -21 -50 -33 -28 -13 -49 -28 -47 -33 5 -14 36 -8 54 10 8 8 25 17 39
    20 13 3 24 9 24 12 0 3 -14 36 -31 73 l-31 68 -159 -80 -159 -79 71 -143 c39
    -78 76 -147 81 -154 7 -9 77 21 274 120 145 72 264 137 264 144 0 22 -114 243
    -125 243 -5 0 -46 -9 -90 -18 l-80 -18 -105 33 c-58 18 -111 33 -119 33 -7 0
    -52 -40 -100 -88z m509 9 c0 -11 5 -23 10 -26 6 -3 10 -10 10 -15 0 -10 -111
    -70 -128 -70 -5 0 -16 15 -25 34 l-16 34 40 16 c47 19 50 27 7 20 -30 -4 -31
    -4 -9 6 13 6 32 8 42 5 10 -4 27 -2 36 4 26 15 33 13 33 -8z m41 -93 c7 -18
    15 -37 17 -42 3 -5 0 -6 -7 -2 -6 4 -19 2 -28 -3 -17 -10 -16 -10 3 -11 11 0
    29 -6 39 -14 19 -14 19 -15 1 -35 -10 -11 -23 -18 -28 -15 -10 6 -71 125 -66
    129 9 7 44 24 50 25 3 0 12 -15 19 -32z m-51 -58 c16 -33 30 -63 30 -67 0 -4
    -14 -16 -30 -25 -30 -17 -30 -17 -45 12 -20 38 -20 38 13 43 22 3 21 4 -5 3
    -27 -2 -34 3 -44 26 -6 16 -14 27 -16 24 -2 -2 9 -31 26 -65 36 -71 36 -71 12
    -71 -10 0 -24 -7 -31 -16 -12 -13 -18 -6 -49 53 l-36 68 70 37 c38 20 71 37
    72 38 2 0 16 -27 33 -60z m-376 -18 l35 -69 -35 -16 -34 -17 -35 70 c-39 78
    -40 81 -22 74 7 -2 21 2 32 10 11 9 21 16 22 16 2 0 18 -31 37 -68z m-74 -42
    c17 -33 30 -61 30 -64 0 -2 -13 -9 -29 -14 -26 -9 -29 -8 -44 23 -16 34 -16
    34 11 38 25 4 25 4 -4 6 -38 1 -53 35 -27 63 21 23 28 17 63 -52z m301 -26
    c17 -36 29 -66 28 -68 -7 -4 -60 -26 -64 -26 -3 0 -65 120 -65 126 0 5 53 33
    63 34 4 0 21 -30 38 -66z m-77 -42 c33 -66 34 -68 13 -69 -12 -1 -27 -9 -34
    -18 -10 -15 -13 -13 -27 14 -21 39 -21 39 12 44 23 4 22 4 -5 3 -26 -2 -34 3
    -47 31 -15 32 -15 33 12 47 15 9 30 15 34 16 4 0 23 -31 42 -68z m-76 -37 c31
    -63 39 -85 26 -72 -4 3 -19 0 -35 -9 l-29 -14 -30 60 c-36 71 -36 74 -7 88 37
    18 41 15 75 -53z m-48 -96 c1 -16 -45 -17 -62 -2 -20 18 -14 37 9 29 8 -3 11
    -1 8 4 -3 6 -14 10 -24 10 -10 0 -24 11 -31 25 -7 14 -18 25 -24 25 -6 1 5 9
    24 20 l35 18 32 -61 c18 -34 32 -65 33 -68z"/>
    <path id="block-d" title="Block D" d="M734 2490 c-55 -41 -60 -52 -69 -145 -10 -99 -27 -199 -36 -217 -7
    -13 4 -45 41 -123 28 -58 54 -105 57 -105 20 0 303 147 303 157 0 24 -105 223
    -118 223 -24 0 -138 -64 -120 -68 9 -2 30 4 47 12 38 20 77 20 85 0 3 -8 10
    -12 16 -9 5 3 10 4 10 1 0 -13 -144 -78 -148 -67 -2 6 -9 8 -14 5 -7 -4 -8 -2
    -4 4 4 6 2 20 -3 31 -12 22 -51 35 -51 17 0 -6 -13 -17 -29 -23 l-29 -11 5 37
    c4 20 10 38 15 39 4 2 8 10 8 18 0 9 -4 13 -8 10 -5 -3 -6 9 -4 25 2 16 5 29
    6 27 2 -2 13 -21 26 -42 18 -30 20 -38 8 -34 -11 5 -15 2 -14 -9 2 -9 13 -18
    25 -20 12 -2 20 1 17 5 -3 5 29 25 70 45 41 20 74 41 74 47 0 17 -99 210 -108
    209 -4 0 -30 -18 -58 -39z m91 -40 c-4 -6 0 -22 9 -35 16 -25 16 -25 -51 -59
    -84 -43 -78 -47 9 -6 61 29 63 30 66 9 2 -11 1 -27 -2 -35 -7 -17 -42 -19 -49
    -1 -3 7 -6 5 -6 -5 -1 -10 5 -18 12 -18 6 -1 0 -8 -15 -16 -16 -8 -28 -19 -28
    -24 0 -28 -24 -2 -55 60 l-35 70 67 34 c72 37 88 42 78 26z m-61 -283 c4 4 4
    0 1 -9 -5 -12 0 -17 15 -20 16 -2 3 -12 -52 -39 l-73 -36 -2 41 c-3 40 -1 43
    40 63 35 18 44 19 53 7 6 -7 14 -11 18 -7z m198 -7 l17 -30 -68 -34 -68 -35
    -16 35 -17 34 58 29 c31 17 62 30 67 30 6 1 18 -13 27 -29z m-132 -94 c0 -6
    -29 -26 -65 -44 -69 -34 -79 -37 -71 -23 3 4 -1 17 -9 27 -8 10 -15 22 -15 26
    0 12 100 59 110 53 6 -4 10 0 10 7 1 16 40 -29 40 -46z m157 -4 c-6 -8 -21
    -12 -33 -9 -13 2 -29 0 -36 -4 -9 -6 -5 -9 12 -9 25 -1 25 -1 -5 -17 -16 -9
    -33 -20 -36 -26 -4 -5 -15 5 -24 22 -9 18 -15 34 -13 35 2 1 32 16 68 33 65
    31 65 31 71 10 3 -12 1 -28 -4 -35z m-129 -51 c9 -27 8 -29 -16 -34 -15 -3
    -35 -1 -44 4 -20 11 -26 -5 -6 -17 8 -5 6 -10 -8 -15 -29 -12 -38 -10 -61 8
    -22 18 -21 18 45 53 37 20 70 35 74 33 3 -2 11 -16 16 -32z"/>
    <path id="block-e" title="Block E" d="M1848 2414 c-82 -41 -148 -79 -148 -84 0 -6 59 -127 130 -270 84
    -168 135 -260 145 -260 23 0 295 139 295 150 0 14 -257 527 -267 533 -4 3 -74
    -28 -155 -69z m159 16 l24 -19 -70 -35 c-67 -34 -71 -35 -81 -17 -5 11 -10 24
    -10 29 0 8 94 62 108 62 2 0 15 -9 29 -20z m-142 -61 c9 -17 15 -32 13 -34 -7
    -6 -128 -65 -133 -65 -4 0 -5 15 -3 32 3 28 10 36 51 55 26 13 47 27 47 33 0
    18 9 11 25 -21z m177 -4 c6 -13 15 -22 19 -19 5 3 9 1 9 -3 0 -9 -123 -73
    -139 -73 -9 0 -36 58 -30 64 11 10 106 55 117 56 7 0 17 -11 24 -25z m-138
    -72 l16 -33 -70 -35 c-74 -37 -85 -41 -75 -25 4 6 0 21 -9 34 -15 24 -14 24
    52 59 37 20 67 35 68 34 1 -1 9 -17 18 -34z m201 -26 c4 4 5 2 1 -5 -13 -22
    -108 -65 -116 -53 -3 7 -14 9 -22 6 -11 -4 -18 1 -23 15 -4 12 -9 19 -11 17
    -9 -9 19 -56 29 -50 6 3 7 1 3 -6 -7 -12 -119 -71 -133 -71 -4 0 -16 14 -25
    30 l-17 30 62 32 c34 18 96 49 137 69 l75 36 15 -29 c9 -16 20 -25 25 -21z m9
    -31 c-3 -8 4 -24 15 -35 l21 -21 -58 -28 c-31 -16 -63 -27 -69 -25 -7 3 -13 0
    -13 -6 0 -11 -131 -81 -151 -81 -7 0 -9 3 -6 7 4 3 0 17 -9 31 -8 13 -14 25
    -12 27 3 3 281 143 285 144 1 1 0 -5 -3 -13z m39 -81 c-3 -9 2 -24 12 -35 16
    -18 15 -20 -53 -54 l-69 -35 -12 25 c-10 24 -10 25 11 20 13 -3 17 -3 10 0 -6
    3 -10 10 -6 15 7 11 -7 12 -24 0 -10 -6 -11 -13 -1 -34 7 -15 10 -29 8 -31 -7
    -6 -128 -66 -134 -66 -3 0 -4 3 -3 8 4 15 -14 52 -25 52 -12 1 271 148 285
    149 4 1 5 -6 1 -14z m48 -99 l15 -34 -63 -31 c-35 -17 -65 -31 -68 -31 -6 0
    -37 61 -33 65 6 5 123 64 128 64 3 0 12 -15 21 -33z m-141 -76 c7 -17 11 -32
    9 -33 -2 -1 -34 -17 -71 -35 -62 -29 -68 -30 -68 -13 0 11 -7 26 -15 34 -12
    13 -6 19 53 50 36 20 69 34 73 31 3 -2 12 -17 19 -34z m173 11 c8 -31 -10 -49
    -48 -47 -19 1 -35 -2 -35 -6 0 -5 10 -8 23 -9 21 0 21 -1 -3 -10 -14 -5 -30
    -17 -37 -25 -10 -14 -14 -11 -28 16 -9 18 -15 33 -13 35 6 6 123 64 129 65 4
    0 9 -8 12 -19z m-138 -81 l15 -29 -34 -7 c-19 -3 -38 -4 -43 -1 -4 2 -17 1
    -28 -4 -17 -6 -15 -8 10 -8 23 -1 27 -4 15 -11 -21 -14 -52 -12 -74 5 -17 13
    -13 16 50 49 38 19 70 35 71 36 1 0 9 -13 18 -30z"/>
    <path id="block-f" title="Block F" d="M1982 2171 c-10 -6 -11 -13 -1 -34 11 -24 13 -25 24 -10 12 16 9 53
    -4 53 -3 0 -12 -4 -19 -9z"/>
    <path id="block-g" title="Block G" d="M1325 2298 c-143 -71 -262 -132 -265 -135 -2 -2 30 -73 73 -159 l77
    -154 270 135 c148 74 270 137 270 140 0 13 -151 305 -158 304 -4 0 -124 -59
    -267 -131z m279 70 c22 -31 20 -36 -11 -41 -28 -4 -28 -4 2 -6 25 -1 65 -29
    65 -45 0 -6 -60 -29 -64 -25 -6 7 -47 89 -56 114 -9 23 -7 25 20 25 19 0 34
    -8 44 -22z m-46 -63 l32 -65 -30 -15 c-38 -20 -37 -20 -56 16 -13 26 -14 33
    -2 41 10 8 9 9 -3 5 -11 -4 -21 3 -28 20 -7 14 -9 28 -7 31 7 6 49 30 56 31 3
    1 20 -28 38 -64z m-77 -36 c20 -41 27 -65 21 -71 -6 -6 -16 -7 -24 -2 -7 5
    -21 7 -30 6 -12 -2 -25 13 -43 48 -15 29 -25 53 -23 54 9 6 54 25 60 25 4 1
    22 -27 39 -60z m-61 -71 c0 -4 -13 -14 -30 -23 -35 -18 -41 -40 -7 -29 32 10
    19 0 -41 -30 l-52 -26 -33 66 c-25 52 -29 68 -18 72 7 2 21 12 31 22 17 17 19
    15 41 -32 13 -27 27 -51 31 -54 4 -3 -4 19 -17 48 -24 51 -24 53 -6 56 11 2
    25 10 32 18 10 13 17 8 40 -33 16 -26 29 -51 29 -55z m262 21 c12 -27 13 -39
    5 -36 -7 2 -22 1 -34 -4 -17 -6 -23 -3 -33 22 -7 16 -15 28 -17 25 -2 -2 9
    -31 26 -65 36 -69 36 -71 17 -71 -8 0 -22 -7 -31 -16 -9 -9 -17 -15 -19 -13
    -6 7 -66 128 -66 134 0 6 112 64 125 64 6 1 18 -17 27 -40z m-436 -60 c19 -39
    34 -72 32 -74 -2 -1 -17 -10 -34 -18 l-31 -16 -16 35 c-21 44 -22 42 11 47 22
    3 22 4 -5 3 -25 -2 -34 4 -43 23 -9 20 -9 26 0 29 7 3 20 13 29 22 9 10 17 19
    18 19 2 1 19 -31 39 -70z m232 26 c-21 -18 -67 -32 -79 -24 -12 8 -12 10 1 8
    28 -3 41 1 35 11 -3 6 1 7 9 4 9 -3 16 -1 16 6 0 6 5 8 11 5 6 -4 9 -8 7 -10z
    m72 -55 c34 -67 36 -80 16 -80 -8 0 -21 -7 -30 -15 -14 -14 -17 -13 -31 14
    -20 39 -20 39 13 44 23 4 22 4 -5 3 -26 -2 -34 3 -47 31 -15 32 -15 33 12 47
    15 9 30 15 34 16 4 0 21 -27 38 -60z m-380 -10 c16 -33 30 -63 30 -68 0 -8
    -51 -36 -54 -30 -5 9 -26 60 -26 63 0 3 10 6 23 6 17 1 15 3 -8 8 -36 7 -47
    45 -18 66 10 8 19 15 20 15 2 0 16 -27 33 -60z m537 34 c3 -9 -3 -24 -15 -36
    l-20 -21 -16 31 c-21 41 -21 42 14 42 19 0 33 -6 37 -16z m-231 -72 l31 -67
    -31 -11 c-27 -9 -33 -8 -48 10 -24 29 -22 34 10 39 23 4 22 4 -5 3 -26 -2 -34
    3 -47 31 -15 32 -15 33 12 47 15 9 32 15 37 15 6 0 24 -30 41 -67z m-78 -37
    c31 -63 39 -85 26 -72 -4 3 -19 0 -35 -9 l-29 -14 -30 60 c-36 71 -36 74 -7
    88 37 18 41 15 75 -53z m-48 -103 c0 -7 -4 -11 -10 -7 -5 3 -18 -3 -30 -15
    l-20 -20 -36 71 c-19 39 -34 72 -32 74 2 1 17 9 33 18 l30 15 32 -61 c18 -34
    32 -68 33 -75z m-121 61 c10 -21 25 -54 33 -73 15 -35 15 -35 -11 -35 -23 0
    -50 19 -51 37 0 4 10 9 23 11 16 3 13 5 -10 6 -18 0 -33 6 -33 13 0 6 -7 19
    -16 29 -15 16 -14 19 13 33 15 8 29 15 30 16 2 0 11 -17 22 -37z"/>
    <path d="M2596 2258 c-3 -13 -10 -81 -16 -153 -6 -71 -25 -213 -41 -315 -16
    -102 -40 -273 -54 -380 -15 -107 -32 -222 -40 -255 -43 -189 -46 -231 -28
    -385 9 -80 21 -149 26 -155 6 -6 7 1 3 20 -3 17 -12 84 -21 151 -15 120 -15
    123 10 255 14 74 39 229 56 344 16 116 43 296 59 400 16 105 34 242 40 305 5
    63 13 132 16 153 6 39 -2 52 -10 15z"/>
    <path d="M1515 1959 c-132 -67 -250 -127 -262 -135 l-23 -14 75 -150 c44 -88
    81 -150 89 -150 20 0 513 247 522 261 8 14 -136 309 -151 308 -5 0 -118 -54
    -250 -120z m265 56 c24 -26 23 -27 -26 -38 -16 -3 -25 2 -33 20 -6 13 -11 28
    -11 33 0 20 47 9 70 -15z m-50 -55 c16 -33 30 -62 30 -64 0 -7 -61 -39 -65
    -34 -7 8 -66 130 -63 132 9 6 54 25 60 25 4 1 21 -26 38 -59z m-69 -52 c16
    -32 26 -58 22 -58 -5 0 -3 -4 3 -8 15 -9 64 -107 64 -127 0 -8 -6 -15 -14 -15
    -8 0 -21 -6 -29 -14 -12 -13 -16 -10 -30 19 l-16 34 32 4 32 4 -35 1 c-28 2
    -39 9 -52 32 -17 30 -17 31 7 42 23 10 23 12 7 24 -15 12 -15 12 6 7 17 -4 21
    -2 17 10 -4 9 -14 13 -26 10 -21 -6 -24 -14 -8 -30 7 -7 6 -12 -6 -17 -9 -3
    -13 -2 -10 4 3 6 -1 13 -9 16 -12 4 -66 103 -66 119 0 2 8 1 18 -2 10 -2 24 3
    32 12 16 19 17 18 61 -67z m155 45 c7 -10 14 -21 14 -24 0 -5 -45 -29 -55 -29
    -5 0 -35 56 -35 65 0 13 64 3 76 -12z m-249 -56 l29 -54 -29 -16 c-16 -10 -32
    -17 -37 -17 -7 0 -50 90 -50 104 0 3 6 6 14 6 7 0 19 7 26 15 7 8 14 15 15 15
    2 0 17 -24 32 -53z m277 8 c-4 -8 1 -26 10 -40 21 -32 21 -35 -11 -36 l-28 -1
    30 -7 c18 -4 31 -14 33 -25 4 -17 -12 -35 -30 -36 -7 0 -68 112 -68 125 0 5
    54 32 67 35 1 0 0 -7 -3 -15z m-346 -62 l31 -68 -32 -17 -32 -16 -17 31 c-23
    43 -22 45 10 50 22 3 22 4 -5 3 -25 -2 -34 4 -43 23 -7 15 -8 27 -2 29 5 1 18
    9 28 17 10 8 22 15 25 15 3 0 20 -30 37 -67z m302 -23 c34 -67 36 -80 16 -80
    -8 0 -21 -7 -30 -15 -14 -14 -19 -9 -51 54 l-35 70 28 15 c15 8 30 15 34 16 4
    0 21 -27 38 -60z m-380 -10 c16 -33 30 -64 30 -69 0 -9 -58 -37 -64 -30 -7 7
    -66 128 -66 134 0 4 3 4 8 1 4 -2 18 2 32 10 14 7 26 13 27 14 2 0 16 -27 33
    -60z m-70 -52 l30 -57 -29 -16 c-31 -15 -49 -20 -38 -9 3 4 0 19 -8 35 -14 27
    -14 28 13 32 26 4 26 4 -4 6 -39 1 -51 33 -26 66 19 26 19 26 62 -57z m249 39
    c12 3 25 -14 48 -60 l31 -64 -34 -17 -35 -16 -34 71 c-34 71 -37 107 -8 90 9
    -5 23 -6 32 -4z m-25 -105 c21 -41 32 -71 26 -67 -6 4 -22 -1 -36 -10 -14 -9
    -27 -15 -29 -13 -8 9 -66 130 -63 133 6 5 63 33 64 32 1 -1 18 -35 38 -75z
    m-79 -32 c37 -74 41 -85 25 -75 -6 4 -22 0 -35 -9 -24 -16 -25 -15 -40 13 -21
    41 -19 44 15 39 17 -3 30 0 30 5 0 5 -16 7 -35 5 -30 -3 -36 0 -46 24 -6 16
    -14 27 -16 24 -2 -2 9 -31 26 -65 17 -33 31 -63 31 -66 0 -10 -56 -5 -68 7
    -18 18 -14 28 11 28 17 0 19 2 8 9 -8 5 -20 7 -27 4 -7 -2 -18 6 -25 19 -6 13
    -16 26 -21 29 -7 4 112 77 129 79 2 0 19 -31 38 -70z"/>
    <path d="M579 2025 c-34 -72 -29 -106 34 -243 31 -68 57 -126 57 -130 0 -4
    -33 -28 -73 -55 -39 -26 -82 -55 -95 -65 l-24 -18 91 -182 c50 -100 96 -182
    102 -182 26 0 299 142 299 155 0 8 -83 181 -184 384 -102 203 -182 372 -179
    375 4 3 3 6 0 6 -4 0 -16 -20 -28 -45z m70 -89 c-2 -2 -19 -11 -36 -20 -32
    -16 -33 -16 -33 4 0 16 7 20 37 20 20 0 34 -2 32 -4z m35 -95 l26 -41 -31 -15
    c-17 -9 -32 -15 -33 -13 -1 2 -7 15 -14 31 -11 26 -11 27 21 28 17 0 25 3 17
    6 -8 3 -18 11 -22 17 -5 8 -8 7 -8 -1 0 -7 -7 -13 -15 -13 -8 0 -15 7 -15 15
    0 9 -7 18 -16 22 -13 5 -9 10 17 24 33 16 34 16 41 -1 4 -10 18 -37 32 -59z
    m67 -132 l18 -26 -43 -20 -43 -21 -1 29 c-1 26 3 29 31 30 18 0 25 3 17 6 -8
    3 -18 11 -22 17 -5 8 -8 7 -8 -1 0 -23 -26 -14 -38 12 -11 24 -10 27 20 40 32
    13 33 13 42 -13 5 -15 17 -39 27 -53z m29 -59 c0 -10 8 -23 17 -28 14 -8 3
    -17 -55 -46 l-71 -36 -16 31 c-9 17 -15 32 -13 34 7 6 124 64 131 65 4 0 7 -9
    7 -20z m-120 -111 c0 -7 -123 -69 -135 -69 -17 0 3 46 25 57 14 7 21 13 15 13
    -5 0 5 10 23 21 17 12 32 26 32 32 0 7 9 -1 20 -18 11 -16 20 -33 20 -36z
    m154 48 c-2 -7 5 -23 16 -35 l20 -22 -77 -39 c-43 -22 -74 -40 -70 -41 4 0 30
    11 58 25 70 36 102 47 94 35 -4 -6 0 -22 9 -35 16 -25 16 -25 -54 -60 -38 -19
    -70 -38 -70 -40 0 -3 32 11 71 31 39 19 72 34 73 32 0 -2 8 -17 17 -34 l16
    -31 -65 -32 c-37 -18 -68 -29 -70 -23 -1 5 -10 18 -18 28 -13 17 -13 16 0 -12
    l15 -30 -74 -37 c-45 -22 -72 -31 -69 -22 3 7 -3 22 -14 33 -20 20 -20 20 38
    51 42 22 60 28 63 19 2 -7 8 -9 13 -5 5 4 2 12 -6 17 -11 7 -12 11 0 24 11 14
    10 16 -6 9 -17 -6 -18 -5 -4 12 12 15 12 17 1 10 -11 -6 -13 -4 -8 8 3 9 3 16
    -1 16 -17 -3 -32 2 -31 9 3 18 -2 32 -12 32 -6 0 -8 -8 -4 -20 5 -16 -3 -24
    -45 -45 -29 -15 -53 -25 -53 -23 -1 2 -9 17 -18 33 l-16 30 141 72 c78 40 142
    72 143 72 1 1 0 -5 -3 -12z m-118 -176 c1 -9 4 -23 8 -31 5 -12 -7 -22 -46
    -41 l-53 -26 -16 34 -17 34 47 23 c52 27 76 29 77 7z m237 -73 c8 -30 -8 -46
    -38 -40 -19 3 -24 1 -20 -10 4 -9 -4 -19 -20 -26 -14 -6 -25 -17 -25 -24 -1
    -7 -9 3 -20 22 -11 19 -19 28 -19 20 -1 -8 4 -22 9 -30 12 -19 -9 -28 -70 -30
    -41 -2 -42 -3 -15 -10 l30 -7 -29 -8 c-29 -8 -56 1 -63 21 -3 8 248 142 268
    143 4 1 9 -9 12 -21z"/>
    <path d="M893 1937 c-79 -39 -143 -75 -143 -79 0 -16 262 -538 270 -538 18 0
    292 143 296 155 7 18 -253 535 -269 534 -6 0 -76 -32 -154 -72z m170 15 c16
    -17 13 -20 -50 -51 -63 -31 -68 -32 -80 -15 -21 29 -16 38 35 61 57 27 74 28
    95 5z m31 -64 c9 -17 15 -32 14 -33 -2 -2 -31 -17 -65 -34 l-62 -31 -16 29
    c-8 17 -15 32 -15 35 0 6 110 65 122 66 3 0 14 -14 22 -32z m-174 3 c5 -11 10
    -22 10 -25 0 -3 -31 -22 -70 -41 l-70 -35 0 33 c0 30 5 35 53 59 64 33 64 33
    77 9z m35 -72 c9 -17 15 -32 13 -34 -8 -7 -130 -66 -132 -63 -5 7 -26 59 -26
    63 0 5 111 64 122 65 4 0 15 -14 23 -31z m175 -3 c5 -13 14 -26 21 -28 6 -2
    -20 -21 -58 -41 -76 -39 -85 -38 -98 13 -5 23 -1 28 52 52 73 33 72 33 83 4z
    m-147 -53 c4 -3 2 -12 -4 -19 -7 -9 -7 -18 0 -31 6 -10 11 -12 11 -5 0 6 5 12
    11 12 8 0 8 -4 0 -14 -13 -15 -4 -49 10 -40 5 3 6 -1 3 -9 -7 -19 8 -28 26
    -17 11 7 11 13 -3 34 l-17 26 70 35 c74 37 85 41 75 25 -3 -5 1 -21 10 -34
    l16 -25 -123 -61 c-155 -78 -169 -83 -162 -65 3 7 -3 22 -14 33 -20 20 -19 20
    30 43 27 13 51 27 54 31 3 4 -19 -3 -47 -17 l-52 -24 -16 32 -16 32 55 31 c58
    33 73 38 83 27z m217 -85 c0 -6 7 -20 17 -30 9 -10 14 -20 12 -22 -9 -8 -131
    -67 -134 -64 -1 2 -9 17 -18 33 l-15 30 61 32 c69 36 77 38 77 21z m-126 -97
    l15 -27 -75 -37 -74 -37 0 25 c0 13 -8 28 -17 33 -14 8 -6 15 44 40 33 17 63
    28 67 25 3 -4 6 -1 6 6 0 18 18 4 34 -28z m166 17 c0 -6 7 -19 16 -29 15 -17
    12 -20 -53 -53 l-70 -35 -16 35 -17 34 58 29 c62 33 82 37 82 19z m-130 -88
    c7 -17 11 -32 9 -34 -9 -8 -131 -67 -133 -64 -5 7 -26 59 -26 63 0 7 113 64
    126 65 6 0 17 -14 24 -30z m167 -28 c-6 -8 -21 -12 -33 -9 -13 2 -29 0 -36 -4
    -9 -6 -3 -9 17 -9 l30 -1 -35 -15 c-19 -8 -37 -20 -41 -26 -4 -6 -14 2 -24 21
    -9 18 -15 34 -13 35 2 0 32 15 68 32 64 31 65 31 71 10 3 -11 1 -27 -4 -34z
    m-129 -50 c11 -31 8 -33 -50 -32 -20 0 -26 -4 -22 -14 10 -25 -43 -32 -65 -10
    -17 18 -16 20 48 55 36 19 69 34 73 32 3 -2 10 -16 16 -31z"/>
    <path d="M2373 1926 c-79 -38 -143 -74 -143 -78 0 -13 204 -427 211 -427 3 -1
    9 31 13 70 7 77 61 441 72 484 3 14 2 24 -2 24 -5 -1 -73 -34 -151 -73z m98
    -34 c-6 -2 -11 -22 -11 -45 l-1 -42 -20 38 c-11 21 -19 46 -17 55 4 22 52 33
    57 13 2 -8 -2 -17 -8 -19z m-73 -7 c7 -14 12 -28 12 -30 0 -3 -31 -21 -70 -40
    l-70 -35 0 30 c0 24 7 35 31 48 17 9 41 25 53 34 28 23 31 22 44 -7z m46 -94
    c38 -73 32 -100 -29 -133 -27 -15 -55 -27 -61 -28 -12 0 -38 50 -29 58 3 3 5
    0 5 -7 0 -7 4 -10 9 -7 5 3 8 0 7 -7 0 -6 4 -12 9 -12 10 0 10 6 0 40 -4 17 4
    24 46 43 29 12 50 25 47 28 -3 3 -33 -8 -65 -25 -50 -25 -59 -27 -59 -13 1 9
    -3 17 -9 17 -5 0 -9 -9 -8 -20 1 -13 -3 -10 -12 10 -7 17 -11 33 -8 38 5 8
    113 66 125 67 4 0 19 -22 32 -49z m-1 -168 c-5 -31 -32 -48 -34 -20 0 9 -2 9
    -6 0 -3 -10 -9 -10 -24 0 -17 11 -16 13 24 33 23 12 43 21 43 21 1 -1 -1 -17
    -3 -34z m-13 -63 c0 -11 -4 -20 -10 -20 -5 0 -14 9 -20 20 -9 17 -8 20 10 20
    13 0 20 -7 20 -20z"/>
    <path d="M2028 1754 c-82 -41 -148 -79 -148 -84 0 -23 261 -530 273 -530 7 0
    42 15 79 34 61 32 78 35 78 14 0 -4 -31 -23 -69 -43 -38 -19 -72 -38 -74 -42
    -3 -5 47 -109 110 -233 62 -124 112 -211 109 -193 -3 18 -10 81 -17 140 -11
    102 -10 116 16 248 14 77 31 172 37 210 l10 70 -121 243 c-67 133 -124 242
    -129 241 -4 0 -73 -34 -154 -75z m166 17 c17 -19 16 -21 -51 -55 l-70 -35 -17
    35 c-9 20 -12 33 -6 29 5 -3 24 2 42 12 29 16 62 29 79 32 3 1 14 -8 23 -18z
    m-14 -131 l-65 -35 -18 33 c-10 19 -17 35 -15 37 2 2 32 17 67 34 l64 30 16
    -32 16 -32 -65 -35z m-131 64 c6 -15 10 -28 9 -29 -5 -4 -127 -65 -131 -65 -1
    0 -4 13 -5 30 -2 31 27 57 51 44 6 -4 9 -3 5 1 -7 7 35 42 53 44 3 1 11 -11
    18 -25z m53 -101 c18 -38 34 -71 36 -75 4 -7 -110 -68 -128 -68 -5 0 -10 6
    -10 14 0 8 -7 21 -15 30 -14 14 -10 18 46 46 33 17 59 34 56 36 -3 3 -32 -9
    -66 -25 -52 -27 -61 -29 -61 -14 0 9 -7 24 -16 34 -15 17 -12 20 53 53 37 19
    69 35 70 36 1 0 17 -30 35 -67z m158 38 c0 -11 5 -23 10 -26 6 -3 10 -10 10
    -14 0 -8 -111 -71 -124 -71 -8 0 -38 61 -33 67 7 7 120 61 130 62 4 1 7 -8 7
    -18z m37 -73 c1 -13 10 -28 19 -35 14 -10 8 -16 -44 -42 -42 -21 -62 -27 -65
    -18 -2 6 -7 9 -11 5 -4 -3 0 -20 9 -38 9 -17 14 -39 11 -48 -5 -13 -2 -12 9 2
    8 11 15 16 15 10 0 -19 -17 -33 -85 -66 l-70 -35 -16 34 -17 34 69 35 c38 19
    69 37 69 39 0 3 -32 -11 -71 -31 -39 -19 -72 -34 -73 -32 0 2 -8 17 -17 34
    l-16 31 65 32 c35 18 65 31 66 29 39 -54 41 -55 20 -4 -4 11 14 25 63 50 37
    19 68 35 68 36 1 0 2 -10 2 -22z m37 -72 c-3 -8 3 -23 14 -34 19 -19 19 -19
    -36 -46 -48 -24 -57 -25 -64 -12 -5 8 -15 22 -24 30 -13 14 -9 18 43 45 67 34
    74 36 67 17z m61 -112 c22 -9 10 -21 -55 -54 -71 -36 -74 -36 -87 -7 -9 19 -8
    26 6 35 13 10 12 11 -6 2 -22 -10 -22 -29 0 -57 7 -10 -1 -17 -29 -29 -22 -9
    -55 -24 -74 -34 -36 -18 -36 -18 -37 3 -1 12 -9 27 -18 34 -14 10 6 23 126 83
    137 68 143 70 151 50 4 -11 14 -23 23 -26z m-5 -105 c0 -34 -22 -109 -32 -109
    -4 0 -10 9 -13 20 -4 11 -17 28 -31 36 -25 17 -33 54 -11 54 8 0 7 4 -3 10
    -14 9 -10 11 15 10 3 -1 13 6 21 15 23 23 54 2 54 -36z m-115 2 c-3 -5 0 -21
    6 -35 7 -14 9 -29 6 -32 -3 -4 -32 -7 -64 -7 -32 0 -46 -2 -30 -4 15 -2 25 -9
    22 -14 -9 -14 -57 -10 -79 6 -17 13 -12 17 60 54 89 45 87 44 79 32z m52 -127
    c4 -11 8 -12 13 -4 4 6 7 -3 7 -19 0 -27 -7 -32 -66 -60 -64 -29 -66 -30 -73
    -11 -11 30 -1 46 42 65 21 10 41 24 44 31 7 19 25 18 33 -2z m37 -83 c-13 -27
    -14 -35 -4 -41 9 -6 -7 -18 -48 -39 l-60 -30 -11 29 c-5 17 -16 30 -23 31 -7
    0 25 20 72 43 47 24 86 43 88 42 1 -2 -5 -17 -14 -35z m-31 -123 c-4 -31 -9
    -37 -25 -35 -19 3 -38 23 -38 40 0 7 63 39 66 34 1 -1 -1 -19 -3 -39z"/>
    <path d="M1678 1580 c-75 -38 -139 -74 -142 -79 -8 -12 330 -691 344 -691 22
    0 300 146 300 157 0 7 -75 164 -167 348 -111 222 -173 335 -183 334 -8 0 -77
    -31 -152 -69z m169 15 c8 -9 14 -17 12 -19 -10 -9 -131 -67 -134 -64 -8 10
    -26 50 -23 52 17 12 97 45 111 46 10 0 25 -7 34 -15z m-137 -87 c0 -4 -28 -22
    -61 -39 -49 -24 -64 -28 -70 -17 -16 25 -4 42 51 73 55 31 55 31 67 11 7 -12
    12 -24 13 -28z m166 30 c4 -13 11 -26 17 -30 6 -3 -18 -20 -52 -38 -35 -17
    -61 -34 -58 -36 3 -3 32 9 66 25 52 27 61 29 61 14 0 -9 7 -24 16 -34 15 -17
    12 -20 -53 -53 l-70 -35 -23 47 c-56 109 -56 98 8 132 69 35 79 36 88 8z
    m-120 -119 c19 -39 34 -72 32 -74 -2 -1 -26 -14 -55 -29 -58 -29 -83 -33 -83
    -12 0 7 -7 19 -16 27 -14 11 -7 17 51 47 37 18 65 36 62 38 -3 3 -32 -8 -66
    -25 -71 -37 -71 -36 -71 -12 0 11 -4 23 -10 26 -20 12 -9 25 48 54 31 17 60
    30 64 31 4 0 24 -32 44 -71z m199 -39 c8 -16 15 -31 15 -34 0 -6 -115 -66
    -124 -66 -7 0 -39 61 -34 65 3 3 121 64 125 65 1 0 9 -13 18 -30z m-141 -77
    l16 -33 -60 -30 c-67 -34 -80 -36 -80 -16 0 8 -7 21 -15 30 -14 14 -9 19 52
    50 37 19 69 33 69 32 1 0 9 -16 18 -33z m180 -5 c9 -17 15 -32 14 -33 -2 -2
    -25 -14 -53 -28 -48 -24 -68 -22 -72 6 -3 20 -11 31 -17 25 -4 -3 0 -20 8 -37
    9 -16 16 -36 15 -43 0 -10 -2 -10 -6 -1 -3 9 -26 2 -75 -23 -38 -19 -71 -34
    -72 -32 0 2 -9 17 -18 34 l-17 30 65 32 c36 18 71 29 77 26 7 -4 8 -3 4 2 -7
    7 103 72 125 74 3 0 14 -14 22 -32z m30 -52 c-3 -8 3 -23 14 -34 19 -19 19
    -19 -36 -46 -43 -22 -57 -25 -63 -14 -5 7 -9 10 -10 6 -1 -5 -2 -11 -3 -15 -1
    -5 -5 -13 -9 -20 -8 -13 36 3 105 38 42 21 52 23 43 9 -3 -5 1 -21 10 -34 l17
    -25 -61 -30 c-33 -17 -64 -31 -69 -31 -5 0 -14 12 -21 26 -6 15 -14 24 -18 21
    -3 -4 2 -18 11 -31 16 -26 16 -26 -35 -51 -78 -40 -99 -47 -93 -30 3 7 -3 22
    -14 33 -19 19 -18 19 46 51 35 18 62 34 59 37 -3 3 -31 -8 -63 -24 l-59 -29
    -17 34 -16 34 65 32 c41 20 67 28 70 21 2 -6 11 -20 19 -30 14 -18 15 -18 5 3
    -17 34 -3 53 63 84 71 34 67 33 60 15z m87 -180 l15 -34 -64 -31 c-35 -18 -65
    -31 -67 -29 -1 2 -10 17 -19 33 -16 29 -17 11 -1 -27 5 -13 -6 -23 -54 -47
    -33 -17 -62 -31 -65 -31 -5 0 -37 62 -34 65 6 5 263 134 268 134 3 0 12 -15
    21 -33z m27 -73 c-2 -23 -9 -29 -32 -31 -21 -3 -26 -6 -16 -12 11 -7 8 -11
    -12 -19 -15 -5 -30 -17 -35 -26 -7 -13 -12 -9 -26 20 l-17 35 58 29 c73 38 84
    39 80 4z m-134 -72 c15 -27 14 -29 -7 -35 -12 -3 -40 -6 -62 -7 -38 -1 -39 -2
    -10 -9 l30 -7 -29 -8 c-30 -8 -57 2 -64 23 -3 9 99 70 120 72 4 0 14 -13 22
    -29z"/>
    <path d="M374 1435 l-70 -55 70 -140 c58 -113 74 -139 89 -134 11 3 17 0 17
    -10 0 -27 37 -28 89 -1 28 14 51 30 51 35 0 10 -169 361 -173 359 -1 0 -34
    -25 -73 -54z m93 -32 c6 -16 9 -43 7 -60 -1 -18 2 -33 6 -33 4 0 10 -9 13 -20
    4 -16 -3 -25 -33 -40 -51 -26 -57 -25 -75 10 -15 29 -15 30 14 45 37 19 41 19
    41 0 0 -8 -4 -15 -10 -15 -24 0 -7 -15 18 -17 19 -1 29 3 29 12 0 8 -4 12 -9
    9 -4 -3 -13 6 -19 20 l-12 25 -36 -20 -36 -19 -16 33 c-10 17 -16 33 -15 34 6
    6 112 63 118 63 3 0 10 -12 15 -27z m73 -147 c0 -7 7 -19 15 -26 8 -7 15 -15
    15 -19 0 -8 -105 -61 -119 -61 -9 0 -44 61 -39 65 2 2 22 12 46 24 54 27 74
    17 31 -15 l-33 -24 27 0 c19 0 25 4 21 15 -4 10 0 15 11 15 12 0 16 6 12 20
    -3 11 -1 20 4 20 5 0 9 -6 9 -14z m28 -98 c11 -14 10 -18 -7 -27 -20 -11 -81
    -4 -81 9 0 5 74 41 75 36 1 -1 6 -9 13 -18z"/>
    <path d="M1078 1279 c-208 -104 -378 -192 -378 -196 0 -9 140 -286 150 -296 7
    -8 755 357 766 374 6 10 -143 309 -154 308 -4 0 -177 -85 -384 -190z m398 114
    c-3 -8 -1 -11 4 -8 6 3 10 2 10 -4 0 -5 -12 -12 -27 -14 -26 -4 -26 -4 4 -6
    42 -1 65 -37 37 -58 -29 -21 -38 -16 -61 35 -37 80 -37 80 -11 84 28 5 51 -10
    44 -29z m-13 -119 c38 -75 67 -137 65 -139 -2 -1 -18 -7 -36 -13 l-32 -11 -30
    60 c-30 59 -32 79 -5 79 8 0 17 5 21 12 7 11 4 10 -43 -9 -6 -2 -19 9 -27 26
    -21 39 -21 39 12 44 22 3 22 4 -5 3 -25 -1 -34 4 -43 22 -6 14 -8 27 -6 30 7
    6 49 30 56 31 3 1 36 -60 73 -135z m-113 36 c16 -33 30 -62 30 -64 0 -7 -61
    -39 -65 -34 -1 2 -17 31 -34 65 l-31 62 28 14 c15 8 30 15 34 16 4 1 21 -26
    38 -59z m-73 -44 l31 -63 -34 -16 -34 -17 -30 60 c-36 71 -36 72 -7 86 37 19
    42 16 74 -50z m272 -2 c25 -41 26 -48 8 -41 -8 3 -19 2 -26 -3 -8 -4 -2 -9 18
    -13 36 -7 42 -35 12 -54 -18 -11 -22 -6 -50 52 -17 35 -31 66 -31 70 0 3 10
    10 23 15 12 5 23 9 24 9 0 1 10 -15 22 -35z m-349 -36 c17 -35 27 -64 22 -66
    -5 -1 -18 -10 -28 -18 -18 -14 -18 -15 3 -5 34 17 41 14 63 -29 42 -82 42 -87
    8 -105 -17 -8 -32 -14 -34 -13 -1 2 -14 23 -28 48 -31 54 -35 46 -5 -11 11
    -23 19 -42 17 -43 -59 -38 -56 -38 -74 -11 -8 13 -12 30 -8 36 4 7 3 9 -3 6
    -6 -4 -15 5 -22 19 -14 32 -15 31 14 38 18 5 23 11 18 24 -6 15 -5 15 10 3 22
    -18 35 -6 19 17 -17 24 -75 143 -71 145 2 1 13 7 24 14 35 21 44 14 75 -49z
    m-66 -115 c-11 -7 -24 -17 -30 -22 -7 -5 -15 -7 -18 -4 -3 4 -6 -1 -6 -11 0
    -10 -7 -17 -17 -15 -38 3 -45 0 -31 -15 9 -9 19 -11 30 -5 28 15 33 11 60 -44
    l26 -54 -34 -15 -35 -16 -68 137 -68 136 34 16 34 17 30 -59 c16 -32 32 -59
    34 -59 3 0 -1 13 -10 30 -20 39 -20 40 18 40 23 0 28 3 18 9 -8 5 -24 6 -36 1
    -18 -7 -25 -4 -34 17 -7 14 -10 26 -9 27 2 0 17 9 33 18 l30 17 34 -66 c32
    -64 32 -67 15 -80z m286 57 c35 -69 36 -76 13 -83 -10 -2 -25 -8 -34 -11 -11
    -5 -19 1 -27 19 -16 35 -16 35 21 35 23 0 28 3 18 9 -8 5 -24 6 -36 1 -19 -7
    -25 -3 -38 25 -16 34 -16 34 11 49 15 7 30 14 34 15 4 1 21 -26 38 -59z m-72
    -47 l32 -68 -24 -6 c-14 -4 -29 -10 -35 -13 -9 -6 -71 100 -71 121 0 9 37 30
    56 32 6 0 25 -29 42 -66z m-378 -13 l30 -59 -29 -16 c-39 -20 -38 -20 -56 15
    -20 38 -20 38 13 43 22 3 22 4 -5 3 -24 -1 -34 4 -42 22 -6 12 -11 25 -11 27
    0 8 55 33 63 28 4 -2 21 -31 37 -63z m-82 -29 c17 -32 32 -61 32 -65 0 -5 -54
    -36 -64 -36 -5 0 -36 55 -36 64 0 3 12 7 28 9 22 3 21 4 -5 3 -27 -2 -34 3
    -42 26 -9 24 -7 29 17 42 15 7 29 14 32 15 3 1 20 -25 38 -58z m-77 -43 c30
    -58 30 -62 13 -75 -27 -20 -38 -16 -51 17 -10 27 -9 30 10 31 l22 2 -22 4
    c-33 7 -45 26 -33 57 5 14 14 26 20 26 5 0 24 -28 41 -62z m227 -64 c18 -37
    32 -67 30 -68 -2 0 -17 -8 -34 -17 l-31 -16 -32 64 c-17 35 -31 65 -31 68 0 5
    51 34 60 35 3 0 20 -30 38 -66z m-77 -40 c16 -37 28 -68 27 -68 -36 -21 -62
    -26 -70 -14 -23 34 -59 111 -54 115 8 9 50 31 59 32 4 1 21 -29 38 -65z m-81
    -34 c16 -33 30 -64 30 -70 0 -18 -46 -11 -65 10 -18 20 -17 20 11 21 l29 2
    -28 4 c-18 3 -32 15 -43 35 -14 28 -14 31 3 44 10 7 21 14 25 14 4 0 21 -27
    38 -60z"/>
    <path d="M425 1015 c97 -192 182 -354 187 -360 6 -5 -10 31 -36 82 -40 80 -43
    92 -28 98 16 6 16 7 0 19 -10 7 -15 16 -11 19 3 4 1 7 -5 7 -18 0 -14 -18 6
    -29 9 -6 12 -11 5 -11 -12 0 -43 37 -43 52 0 4 6 6 13 4 6 -1 9 -1 4 1 -4 3
    -5 8 -3 12 3 4 0 13 -5 21 -9 12 -11 13 -16 2 -3 -8 -55 82 -115 200 -61 117
    -115 218 -121 223 -5 6 70 -147 168 -340z"/>
    <path d="M1483 1047 c-79 -39 -143 -77 -143 -84 0 -23 33 -82 43 -76 6 3 7 1
    3 -5 -4 -6 0 -24 9 -39 l16 -28 -6 42 -5 42 61 31 c34 17 63 29 64 28 1 -2 10
    -18 19 -35 l16 -33 -90 -45 c-49 -25 -93 -45 -98 -45 -4 0 -23 32 -42 70 -21
    43 -40 70 -49 69 -24 0 -449 -218 -427 -218 10 -1 44 5 75 13 31 8 126 17 210
    21 85 3 157 8 160 9 4 2 47 7 96 10 50 4 117 11 150 15 33 5 61 8 62 7 0 0 78
    -155 171 -342 l171 -341 83 13 c46 8 88 14 93 14 14 0 -473 974 -488 977 -7 1
    -76 -30 -154 -70z m165 15 c18 -18 16 -20 -51 -54 l-69 -36 -13 31 c-13 31
    -13 31 23 44 20 6 40 9 45 6 6 -3 7 -1 3 5 -6 10 8 20 32 21 6 1 20 -7 30 -17z
    m-143 -62 l15 -30 -70 -35 -70 -35 0 34 c0 32 4 36 50 57 28 12 50 26 50 31 0
    16 10 8 25 -22z m172 24 c-3 -4 0 -19 8 -34 14 -27 14 -27 -46 -59 -32 -17
    -63 -31 -68 -31 -8 0 -31 44 -31 61 0 5 28 23 63 39 59 28 87 37 74 24z m33
    -84 c0 -5 9 -19 19 -29 19 -19 18 -20 -49 -55 -37 -20 -70 -36 -73 -36 -2 0
    -10 14 -17 30 -15 36 -25 34 -11 -3 8 -22 7 -25 -13 -29 -12 -3 -31 -1 -42 2
    -10 4 -32 3 -47 -3 -15 -5 -31 -7 -34 -4 -5 5 242 135 260 136 4 1 7 -3 7 -9z
    m-410 -65 l23 -25 -34 -1 c-34 -2 -34 -2 -4 -6 27 -4 44 -17 45 -34 0 -3 -11
    -11 -24 -17 -22 -10 -25 -7 -50 41 -14 29 -26 56 -26 60 0 17 49 5 70 -18z
    m-30 -95 c0 -3 -24 -5 -52 -5 -45 0 -56 4 -70 25 -21 29 -24 62 -5 55 6 -3 26
    3 42 14 l30 18 27 -51 c15 -28 27 -53 28 -56z m492 60 l17 -30 -59 -30 c-68
    -34 -70 -35 -70 -16 0 7 -10 20 -22 28 -22 15 -22 16 37 46 33 17 65 31 70 31
    6 1 18 -13 27 -29z m-622 -52 c0 -4 -6 -8 -12 -8 -23 0 -58 12 -58 20 0 4 10
    12 23 17 17 9 25 8 35 -5 6 -9 12 -19 12 -24z m632 -76 c-24 -13 -42 -26 -39
    -28 3 -3 23 4 45 15 l41 21 15 -32 c15 -28 15 -32 -2 -44 -34 -26 -75 -39 -80
    -26 -2 7 -7 10 -12 7 -4 -3 -6 4 -3 15 4 14 0 20 -12 20 -12 0 -15 -5 -10 -22
    15 -50 28 -52 94 -19 33 17 61 28 60 24 -3 -18 2 -33 16 -47 14 -14 10 -18
    -44 -46 -33 -16 -64 -30 -69 -30 -10 0 -46 60 -35 60 4 0 3 4 -3 8 -6 4 -18
    21 -27 39 -14 27 -15 32 -2 37 16 6 10 36 -7 36 -6 0 -8 -7 -4 -15 3 -8 2 -15
    -2 -15 -4 0 -12 16 -18 36 l-12 36 61 28 60 29 16 -32 16 -32 -43 -23z m136
    -149 c-4 -16 14 -53 25 -53 12 -1 -111 -69 -126 -70 -5 0 -6 4 -2 10 3 5 -3
    18 -14 29 l-21 21 23 14 c32 20 101 55 110 56 4 0 6 -3 5 -7z m44 -106 l16
    -34 -64 -31 c-59 -29 -64 -30 -64 -13 0 11 -7 26 -15 34 -12 13 -7 18 43 46
    31 17 60 31 63 31 3 0 12 -15 21 -33z m28 -57 c0 -5 9 -19 19 -29 19 -19 18
    -20 -39 -50 -32 -17 -60 -31 -64 -31 -7 0 -39 61 -34 65 7 6 104 54 111 55 4
    0 7 -4 7 -10z m61 -116 c8 -10 -5 -21 -51 -44 -34 -17 -63 -30 -64 -28 0 2 -8
    17 -17 33 l-16 30 61 31 c60 32 61 32 69 11 4 -12 12 -27 18 -33z m19 -38 c0
    -7 7 -19 15 -26 8 -7 15 -16 15 -19 0 -9 -118 -66 -123 -60 -2 2 -11 16 -20
    31 l-17 28 57 29 c67 35 73 36 73 17z"/>
    <path d="M586 1034 c-44 -23 -48 -27 -43 -53 3 -15 1 -33 -4 -38 -7 -7 9 -50
    51 -134 34 -68 64 -126 66 -128 5 -6 174 31 174 39 0 19 -170 335 -182 337 -7
    0 -35 -10 -62 -23z m68 -45 c-3 -5 -19 -13 -37 -17 -18 -5 -31 -15 -29 -21 1
    -7 -2 -10 -8 -6 -13 8 3 39 32 59 16 11 25 13 35 5 7 -6 10 -15 7 -20z m48
    -54 l16 -35 -60 -30 c-32 -16 -60 -30 -62 -30 -2 0 -7 11 -10 25 -4 14 -11 25
    -16 25 -26 0 -4 23 48 49 31 17 59 30 62 31 3 0 13 -16 22 -35z m41 -82 l15
    -32 -61 -31 -61 -30 -13 31 c-7 17 -13 33 -13 35 0 4 114 63 116 61 0 -1 8
    -16 17 -34z m33 -77 c8 -46 2 -54 -52 -62 -39 -5 -49 -3 -66 14 l-21 20 59 31
    c33 16 62 30 66 31 4 0 10 -15 14 -34z"/>
    <path d="M2045 845 c-76 -40 -141 -77 -143 -83 -2 -6 47 -110 108 -231 77
    -155 115 -221 127 -221 9 0 44 15 79 34 58 32 74 35 74 14 0 -4 -28 -22 -62
    -39 -94 -47 -92 -42 -57 -110 33 -66 23 -63 130 -43 l26 5 13 162 c9 120 18
    176 34 218 36 90 32 91 -101 26 -68 -33 -88 -36 -62 -10 12 12 -37 116 -52
    108 -4 -3 -6 -13 -3 -23 3 -9 -1 -6 -10 8 -15 25 -14 25 50 58 64 32 84 34 84
    7 0 -8 8 -18 17 -23 14 -8 8 -14 -35 -36 -29 -15 -52 -29 -52 -31 0 -3 13 1
    30 10 54 28 80 35 74 22 -6 -16 22 -54 32 -44 11 11 -133 297 -148 296 -7 -1
    -76 -34 -153 -74z m161 20 c4 -8 10 -12 15 -9 5 3 9 1 9 -4 0 -14 -138 -84
    -144 -74 -10 17 -27 67 -20 60 3 -4 20 0 36 8 16 8 34 12 40 8 6 -4 8 -3 4 4
    -6 10 11 18 42 21 7 0 15 -6 18 -14z m-141 -65 c8 -16 15 -31 15 -33 0 -3 -24
    -15 -52 -28 -78 -35 -93 -41 -85 -33 3 4 2 15 -3 25 -11 20 16 46 70 69 16 7
    30 16 30 21 0 17 10 9 25 -21z m175 11 c0 -11 5 -23 10 -26 6 -3 10 -10 10
    -15 0 -10 -111 -70 -129 -70 -8 0 -35 60 -29 65 8 7 124 64 131 65 4 0 7 -9 7
    -19z m-136 -88 l16 -33 -60 -30 c-65 -33 -80 -36 -80 -18 0 6 -7 19 -16 29
    -15 17 -12 20 53 52 37 19 69 34 69 33 1 0 9 -16 18 -33z m34 -68 c8 -17 16
    -23 28 -18 12 4 15 3 10 -6 -7 -10 -138 -81 -151 -81 -3 0 -5 6 -5 14 0 8 -7
    22 -16 31 -9 9 -15 17 -13 19 7 6 124 65 130 66 3 0 11 -11 17 -25z m53 -62
    c1 -10 2 -27 3 -38 1 -11 6 -20 13 -20 6 0 15 -3 19 -7 4 -5 12 -8 18 -8 6 0
    5 4 -3 9 -11 7 2 17 47 40 34 17 63 31 66 31 3 0 1 -14 -4 -31 -5 -17 -8 -36
    -7 -42 2 -11 -70 -57 -90 -57 -7 0 -19 12 -27 28 -8 15 -15 22 -16 17 0 -6 7
    -20 15 -32 15 -22 14 -23 -35 -48 -76 -39 -100 -47 -94 -32 2 7 -4 22 -15 33
    -19 21 -19 21 46 53 36 18 63 34 60 37 -3 3 -31 -8 -63 -24 l-59 -29 -17 34
    -16 35 71 34 c82 39 86 40 88 17z m134 -132 c0 -24 -4 -28 -30 -29 -16 0 -33
    5 -38 11 -5 7 -6 4 -2 -8 17 -48 17 -52 -8 -57 -13 -3 -32 -1 -43 2 -10 4 -28
    4 -39 -1 -19 -7 -19 -8 3 -8 12 -1 22 -5 22 -10 0 -19 -45 -20 -64 -1 -11 11
    -18 21 -15 24 6 5 203 105 209 105 3 1 5 -12 5 -28z m-5 -45 c0 -11 -13 -36
    -19 -36 -3 0 -12 9 -19 20 -11 18 -10 20 13 20 14 0 25 -2 25 -4z m-10 -102
    c6 -14 10 -29 10 -35 0 -8 -111 -69 -128 -69 -4 0 -9 13 -10 30 -2 26 3 32 48
    55 27 14 50 30 50 35 0 20 21 9 30 -16z"/>
    <path d="M747 3 c414 -2 1092 -2 1505 0 414 1 76 2 -752 2 -828 0 -1166 -1
    -753 -2z"/>
    </g>
</svg>
